 <svg  version="1.0" xmlns="http://www.w3.org/2000/svg"  width="300.000000pt" height="307.000000pt" viewBox="0 0 300.000000 307.000000"  preserveAspectRatio="xMidYMid meet">  <g transform="translate(0.000000,307.000000) scale(0.100000,-0.100000)" fill="#c72c48" stroke="none"> <path d="M1766 2608 c-8 -24 -22 -81 -30 -128 -41 -226 -78 -402 -100 -475 -13 -44 -27 -116 -30 -160 -10 -122 -31 -206 -77 -310 -23 -52 -45 -97 -49 -100 -4 -2 -13 8 -21 23 -7 15 -18 34 -25 42 -30 39 -84 151 -98 205 -8 33 -22 127 -30 209 l-16 149 -50 89 c-28 49 -66 133 -86 186 -44 124 -53 142 -76 142 -20 0 -24 -29 -8 -58 5 -9 25 -61 45 -114 19 -53 51 -124 70 -157 55 -94 62 -117 74 -251 7 -69 19 -154 28 -190 15 -63 67 -179 103 -230 10 -14 55 -86 100 -160 46 -74 100 -162 120 -195 63 -103 198 -371 214 -426 22 -74 20 -101 -11 -123 -24 -18 -28 -18 -52 -3 -14 8 -46 44 -71 79 -25 36 -72 102 -105 149 -34 46 -78 116 -100 154 -21 39 -68 112 -103 164 -165 237 -283 306 -390 224 -34 -26 -118 -186 -143 -273 -22 -78 -97 -266 -139 -351 -43 -85 -120 -299 -120 -335 0 -34 -81 -223 -113 -265 -19 -25 -76 -51 -98 -44 -36 12 -52 50 -45 108 3 29 58 209 121 400 128 389 157 493 153 546 l-3 36 -70 -3 c-97 -5 -137 13 -155 68 -8 23 -21 44 -29 47 -9 2 -34 13 -57 23 -52 23 -68 57 -84 175 -22 155 -4 303 81 691 40 179 41 195 29 238 -15 53 -44 96 -66 96 -26 0 -26 -27 0 -65 14 -21 26 -51 26 -67 0 -16 -18 -111 -39 -211 -54 -249 -69 -331 -82 -444 -17 -151 2 -319 45 -397 20 -37 77 -76 111 -76 9 0 15 -9 15 -21 0 -12 17 -39 39 -60 41 -41 60 -46 158 -40 24 2 43 -1 43 -5 0 -15 -40 -141 -162 -516 -100 -309 -120 -378 -120 -433 -1 -51 3 -71 19 -93 25 -33 83 -57 118 -48 41 11 98 69 131 137 30 61 48 110 110 314 25 80 65 179 132 325 44 97 61 139 91 235 42 133 107 254 149 278 56 33 95 18 184 -73 l77 -78 -59 -121 c-32 -66 -94 -173 -136 -238 -113 -172 -134 -215 -134 -277 0 -69 19 -96 68 -96 58 1 121 39 184 114 54 64 222 308 234 341 4 11 16 -2 41 -42 19 -32 45 -71 59 -88 13 -16 51 -69 84 -117 86 -125 144 -152 213 -98 61 48 42 142 -75 374 -44 88 -92 178 -104 198 -13 21 -24 43 -24 50 1 17 83 105 140 150 65 52 106 70 117 55 11 -13 69 -188 108 -319 13 -46 44 -124 68 -174 25 -49 59 -142 77 -205 42 -146 95 -300 125 -360 78 -153 245 -140 245 20 0 41 -6 66 -59 241 -21 69 -44 150 -51 180 -12 52 -58 218 -120 435 -16 55 -29 115 -30 134 l0 34 54 -7 c31 -3 68 -1 87 5 45 15 97 65 105 101 4 23 16 34 49 48 49 21 52 28 65 139 5 44 13 89 18 98 28 55 47 183 45 318 -1 133 -3 147 -42 280 -23 77 -41 147 -41 156 0 9 11 37 25 63 27 50 26 66 -5 66 -27 0 -60 -75 -60 -136 0 -27 9 -78 20 -114 69 -222 75 -386 21 -595 -17 -66 -31 -138 -31 -160 0 -53 -8 -63 -60 -78 -41 -12 -45 -16 -47 -47 -2 -23 -14 -45 -33 -65 -29 -28 -35 -30 -109 -30 -92 0 -111 -11 -111 -64 0 -39 44 -222 62 -254 10 -20 52 -178 95 -356 13 -57 31 -120 39 -140 26 -61 64 -217 64 -259 0 -38 -19 -72 -41 -72 -5 0 -26 7 -47 15 -29 12 -45 27 -60 59 -32 64 -87 221 -127 361 -19 69 -55 166 -80 214 -24 49 -55 129 -69 177 -37 131 -94 294 -111 321 -25 37 -71 31 -146 -19 -63 -42 -137 -111 -167 -156 -15 -23 -15 -23 -51 40 -20 35 -46 78 -59 96 l-23 32 24 32 c31 42 82 156 101 228 9 30 22 111 30 180 8 69 24 154 35 190 20 64 50 204 91 434 12 66 28 132 36 148 17 32 12 48 -16 48 -13 0 -23 -13 -34 -42z m-426 -1498 c0 -6 23 -47 51 -91 l50 -81 -28 -40 c-15 -21 -45 -66 -65 -99 -60 -97 -178 -247 -219 -280 -21 -16 -54 -33 -73 -36 -32 -5 -36 -3 -42 21 -8 34 16 100 63 169 120 177 243 397 243 434 0 7 5 13 10 13 6 0 10 -5 10 -10z"/> <path d="M1200 842 c0 -10 85 -52 105 -52 28 0 15 18 -28 39 -45 22 -77 27 -77 13z"/> <path d="M1190 801 c0 -11 66 -51 86 -51 27 0 13 25 -25 43 -42 19 -61 22 -61 8z"/> <path d="M1455 1226 c-16 -8 -43 -26 -60 -39 -27 -23 -28 -26 -12 -33 12 -4 27 1 45 19 15 14 42 28 60 32 18 4 31 12 29 18 -5 17 -28 18 -62 3z"/> <path d="M1454 1171 c-35 -21 -51 -41 -34 -41 21 0 91 41 85 50 -9 14 -16 13 -51 -9z"/> <path d="M1502 1143 c-12 -8 -37 -19 -55 -22 -40 -9 -42 -25 -2 -29 34 -3 100 29 100 48 0 20 -17 21 -43 3z"/> <path d="M2136 1050 c-26 -17 -44 -35 -41 -40 9 -15 23 -12 55 12 17 12 48 23 72 24 24 2 45 3 48 4 3 0 -4 7 -14 15 -30 23 -67 18 -120 -15z"/> <path d="M2185 1009 c-59 -24 -74 -36 -53 -44 8 -3 36 3 62 15 26 11 56 20 67 20 10 0 19 7 19 15 0 21 -34 18 -95 -6z"/> <path d="M2247 966 c-10 -8 -38 -17 -62 -21 -54 -8 -64 -35 -12 -35 42 1 117 35 117 55 0 18 -19 19 -43 1z"/> <path d="M593 900 c-24 -10 -29 -21 -15 -34 4 -4 7 -13 7 -19 0 -8 26 -13 73 -15 57 -2 73 0 70 10 -5 14 -7 14 -81 16 -29 1 -46 6 -42 12 8 13 81 13 107 -1 13 -7 23 -8 30 -1 15 15 -43 42 -89 41 -21 0 -48 -4 -60 -9z"/> <path d="M1686 803 c-41 -32 -53 -51 -34 -56 12 -4 98 65 98 79 0 22 -13 17 -64 -23z"/> <path d="M567 813 c-14 -13 -6 -23 31 -33 48 -15 106 -10 110 10 2 12 -8 15 -45 15 -27 0 -57 3 -69 8 -11 4 -23 4 -27 0z"/> <path d="M1705 757 c-55 -47 -38 -67 20 -24 44 32 58 57 32 57 -8 0 -31 -15 -52 -33z"/> <path d="M2294 556 c-21 -18 -26 -28 -18 -36 8 -8 18 -5 36 10 16 12 41 20 63 20 51 0 41 24 -12 28 -32 2 -47 -2 -69 -22z"/> <path d="M2370 520 c-8 -5 -27 -10 -42 -10 -30 0 -46 -16 -30 -32 22 -22 112 12 112 43 0 12 -21 11 -40 -1z"/> <path d="M441 431 c-14 -3 -26 -12 -28 -18 -3 -9 18 -11 79 -8 58 3 83 8 83 17 0 15 -94 21 -134 9z"/> <path d="M482 383 c-44 -3 -62 -8 -59 -16 8 -27 147 -19 147 8 0 8 -6 14 -12 13 -7 -1 -41 -3 -76 -5z"/> </g> </svg> 